<?xml version="1.0" encoding="utf-8"?>
<!-- Generator: Adobe Illustrator 16.0.0, SVG Export Plug-In . SVG Version: 6.00 Build 0)  -->
<!DOCTYPE svg PUBLIC "-//W3C//DTD SVG 1.1//EN" "http://www.w3.org/Graphics/SVG/1.1/DTD/svg11.dtd">
<svg version="1.1" id="Layer_1" xmlns="http://www.w3.org/2000/svg" xmlns:xlink="http://www.w3.org/1999/xlink" x="0px" y="0px"
	 width="265px" height="286.691px" viewBox="0 0 265 286.691" enable-background="new 0 0 265 286.691" xml:space="preserve">
<circle fill="#FFFFFF" stroke="#000000" stroke-miterlimit="10" cx="132.75" cy="132.25" r="131.75"/>
<path fill="none" stroke="#000000" stroke-miterlimit="10" d="M0.5,135"/>
<path fill="none" stroke="#000000" stroke-miterlimit="10" d="M265,132.5"/>
<path fill="none" stroke="#000000" stroke-miterlimit="10" d="M264,134.5"/>
<path fill="none" stroke="#000000" stroke-miterlimit="10" d="M0.5,135"/>
<path fill="none" stroke="#000000" stroke-miterlimit="10" d="M0.5,135c0,0,4.042,142.909,133.5,151c80,5,135-89,130-151.5"/>
<path fill="none" stroke="#000000" stroke-miterlimit="10" d="M32,124c0-28.188,37.57-51,84-51"/>
<path fill="none" stroke="#000000" stroke-miterlimit="10" d="M81,141c0,40.902,18.338,74,41,74"/>
<path fill="none" stroke="#000000" stroke-miterlimit="10" d="M160,218c0-33.717,27.283-61,61-61"/>
<path fill="none" stroke="#000000" stroke-miterlimit="10" d="M183,101c0,18.24,14.76,33,33,33"/>
<path fill="none" stroke="#000000" stroke-miterlimit="10" d="M138,118c0,18.793,19.68,34,44,34"/>
<path fill="none" stroke="#000000" stroke-miterlimit="10" d="M38,186c0-35.375,27.283-64,61-64"/>
<path fill="none" stroke="#000000" stroke-miterlimit="10" d="M69,195c0,21.558,29.967,39,67,39"/>
<path fill="none" stroke="#000000" stroke-miterlimit="10" d="M85,54c0-9.396,24.6-17,55-17"/>
<path fill="none" stroke="#000000" stroke-miterlimit="10" d="M113,119c0-21.557,24.6-39,55-39"/>
<path fill="none" stroke="#000000" stroke-miterlimit="10" d="M219,117c0-36.479-23.258-66-52-66"/>
<path fill="none" stroke="#000000" stroke-miterlimit="10" d="M195,194c0-20.451-35.334-37-79-37"/>
<rect x="55" y="164.001" transform="matrix(-0.8255 0.5644 -0.5644 -0.8255 213.5608 279.9729)" fill="none" stroke="#000000" stroke-miterlimit="10" width="17" height="17.999"/>
<rect x="177.51" y="204.007" transform="matrix(0.9002 0.4354 -0.4354 0.9002 111.3101 -59.7415)" fill="none" stroke="#000000" stroke-miterlimit="10" width="17" height="17.999"/>
<circle fill="none" stroke="#000000" stroke-miterlimit="10" cx="183.5" cy="83.5" r="7.5"/>
</svg>
