<?xml version="1.0" encoding="utf-8"?>
<!-- Generator: Adobe Illustrator 16.0.0, SVG Export Plug-In . SVG Version: 6.00 Build 0)  -->
<!DOCTYPE svg PUBLIC "-//W3C//DTD SVG 1.1//EN" "http://www.w3.org/Graphics/SVG/1.1/DTD/svg11.dtd">
<svg version="1.1" id="Layer_1" xmlns="http://www.w3.org/2000/svg" xmlns:xlink="http://www.w3.org/1999/xlink" x="0px" y="0px"
	 width="446px" height="245px" viewBox="0 0 446 245" enable-background="new 0 0 446 245" xml:space="preserve">
<g>
	<ellipse fill="#FFFFFF" stroke="#000000" stroke-miterlimit="10" cx="223" cy="122.5" rx="222.5" ry="122"/>
	<ellipse fill="none" stroke="#000000" stroke-miterlimit="10" cx="223.117" cy="122" rx="214.617" ry="118.5"/>
</g>
<g>
	<path fill="none" stroke="#000000" stroke-miterlimit="10" d="M72.167,76.115c0,0,9.019-2.727,11.536,1.888
		c2.517,4.614,19.086-3.356,21.813-5.034c2.727-1.678,6.501-9.019,4.614-11.746c-1.887-2.727-7.55-11.955-16.779-7.97
		s-16.569,5.243-18.667,9.647c-2.098,4.405,1.468,4.195-0.42,7.551S72.167,76.115,72.167,76.115z"/>
	<path fill="none" stroke="#000000" stroke-miterlimit="10" d="M79.717,62.901c0.629,0.42,2.727,1.678,3.566,3.356"/>
	<path fill="none" stroke="#000000" stroke-miterlimit="10" d="M81.815,60.175c1.631,0.21,3.496,2.307,4.195,3.356"/>
	<path fill="none" stroke="#000000" stroke-miterlimit="10" d="M91.043,56.819c0,0,1.888,1.678,3.775,2.097
		c1.888,0.419,2.097,1.888,2.097,1.888"/>
	<path fill="none" stroke="#000000" stroke-miterlimit="10" d="M96.916,54.932c0,0,1.049,1.468,2.727,1.888
		c1.678,0.419,2.307,1.468,2.307,2.097"/>
	<path fill="none" stroke="#000000" stroke-miterlimit="10" d="M86.429,58.497c0,0,2.517,2.727,3.775,2.937
		c1.258,0.209,2.727,1.048,2.727,1.678"/>
</g>
<g>
	<path fill="none" stroke="#000000" stroke-miterlimit="10" d="M63.891,94.861c3.787-6.491,20.015,0.541,20.015,0.541
		c-9.196,5.95-1.623,9.736-8.655,17.31s-19.473,5.409-21.637,2.704c-2.164-2.705-8.114-1.623-8.114-1.623s0.541-11.9,8.114-15.146
		L63.891,94.861z"/>
	<path fill="none" stroke="#000000" stroke-miterlimit="10" d="M53.344,101.082c0,0-2.164,4.868,0.811,6.491
		c2.975,1.623,1.353,2.704,1.353,2.704"/>
	<path fill="none" stroke="#000000" stroke-miterlimit="10" d="M56.859,100.541c0,0,1.353,3.516,3.516,4.057
		c2.164,0.542,0.812,1.894,1.082,2.705"/>
	<path fill="none" stroke="#000000" stroke-miterlimit="10" d="M61.728,98.917c0,0,2.705,3.516,5.41,4.869
		c2.704,1.353,1.623,1.893,1.352,2.705"/>
	<path fill="none" stroke="#000000" stroke-miterlimit="10" d="M66.326,96.213c0,0,3.246,4.057,4.598,4.057s1.623,1.082,1.894,2.164
		"/>
</g>
<g>
	<path fill="none" stroke="#000000" stroke-miterlimit="10" d="M97.318,109.528c0,0,8.692-3.635,11.668,0.698
		c2.975,4.333,18.643-5.29,21.184-7.238c2.541-1.948,5.545-9.636,3.389-12.156c-2.156-2.52-8.733-11.12-17.506-6.212
		c-8.773,4.908-15.946,6.91-17.582,11.506c-1.636,4.596,1.889,4.023,0.354,7.554S97.318,109.528,97.318,109.528z"/>
	<path fill="none" stroke="#000000" stroke-miterlimit="10" d="M103.478,95.612c0.669,0.354,2.884,1.391,3.89,2.974"/>
	<path fill="none" stroke="#000000" stroke-miterlimit="10" d="M105.285,92.685c1.645,0.042,3.713,1.938,4.516,2.909"/>
	<path fill="none" stroke="#000000" stroke-miterlimit="10" d="M114.122,88.403c0,0,2.05,1.477,3.97,1.7
		c1.921,0.224,2.279,1.663,2.279,1.663"/>
	<path fill="none" stroke="#000000" stroke-miterlimit="10" d="M119.771,85.925c0,0,1.193,1.354,2.905,1.599
		c1.712,0.246,2.445,1.225,2.509,1.85"/>
	<path fill="none" stroke="#000000" stroke-miterlimit="10" d="M109.704,90.544c0,0,2.782,2.455,4.056,2.535
		c1.273,0.08,2.819,0.764,2.884,1.39"/>
</g>
<g>
	<path fill="none" stroke="#000000" stroke-miterlimit="10" d="M149.705,50.44c5.155-5.468,19.375,5.047,19.375,5.047
		c-10.302,3.72-3.78,9.118-12.341,14.908c-8.561,5.79-20.191,0.872-21.688-2.252c-1.497-3.124-7.538-3.413-7.538-3.413
		s3.214-11.47,11.325-12.922L149.705,50.44z"/>
	<path fill="none" stroke="#000000" stroke-miterlimit="10" d="M138.025,54.118c0,0-3.207,4.253-0.676,6.506
		c2.532,2.252,0.707,2.94,0.707,2.94"/>
	<path fill="none" stroke="#000000" stroke-miterlimit="10" d="M141.573,54.385c0,0,0.523,3.73,2.509,4.746
		c1.985,1.016,0.363,2.028,0.443,2.879"/>
	<path fill="none" stroke="#000000" stroke-miterlimit="10" d="M146.682,53.903c0,0,1.841,4.036,4.17,5.964
		c2.329,1.928,1.153,2.21,0.706,2.94"/>
	<path fill="none" stroke="#000000" stroke-miterlimit="10" d="M151.771,52.307c0,0,2.246,4.685,3.563,4.99
		c1.317,0.305,1.337,1.42,1.356,2.535"/>
</g>
<g>
	<path fill="none" stroke="#000000" stroke-miterlimit="10" d="M172.433,108.972c0,0-22.178,15.448-16.851,22.354
		c5.328,6.907,9.611,3.101,13.033-0.607s43.692-50.562,50.591-51.346c2.489-1.157,28.104-29.399,32.906-25.577
		s-9.035-10.329-15.444-5.233S173.562,108.146,172.433,108.972z"/>
	<path fill="none" stroke="#000000" stroke-miterlimit="10" d="M155.582,131.327c0,0-3.421,3.708-5.377,3.407"/>
	<path fill="none" stroke="#000000" stroke-miterlimit="10" d="M157.005,133.087c0,0-2.426,3.246-5.182,5.131"/>
	<path fill="none" stroke="#000000" stroke-miterlimit="10" d="M154.704,140.511c-1.325-0.897,3.626-6.526,3.626-6.526
		s-0.905,5.868,1.913,6.071"/>
</g>
<g>
	<path fill="none" stroke="#000000" stroke-miterlimit="10" d="M192.933,117.472c0,0-22.178,15.448-16.851,22.354
		c5.328,6.907,9.611,3.101,13.033-0.607c6.355-6.887,37.602-49.869,50.592-51.346c12.387-5.756,25.471-29.018,28.793-26.374
		c4.802,3.822-4.923-9.532-11.332-4.437C250.76,62.159,194.062,116.646,192.933,117.472z"/>
	<path fill="none" stroke="#000000" stroke-miterlimit="10" d="M176.082,139.827c0,0-3.421,3.708-5.377,3.407"/>
	<path fill="none" stroke="#000000" stroke-miterlimit="10" d="M177.505,141.587c0,0-2.426,3.246-5.182,5.131"/>
	<path fill="none" stroke="#000000" stroke-miterlimit="10" d="M175.204,149.011c-1.325-0.897,3.626-6.526,3.626-6.526
		s-0.905,5.868,1.913,6.071"/>
</g>
<g>
	<path fill="none" stroke="#000000" stroke-miterlimit="10" d="M63.927,136.625c0,0,9.419,0.212,10.377,5.381
		c0.957,5.168,19.184,2.745,22.297,1.998s8.983-6.55,8.037-9.729c-0.946-3.178-3.459-13.71-13.469-12.792
		c-10.01,0.918-17.378-0.168-20.741,3.366c-3.363,3.534,0.091,4.443-2.747,7.046C64.844,134.498,63.927,136.625,63.927,136.625z"/>
	<path fill="none" stroke="#000000" stroke-miterlimit="10" d="M75.212,126.414c0.467,0.595,2.07,2.443,2.345,4.298"/>
	<path fill="none" stroke="#000000" stroke-miterlimit="10" d="M78.053,124.475c1.485,0.707,2.605,3.28,2.943,4.494"/>
	<path fill="none" stroke="#000000" stroke-miterlimit="10" d="M87.867,124.155c0,0,1.273,2.182,2.937,3.167
		c1.664,0.985,1.406,2.446,1.406,2.446"/>
	<path fill="none" stroke="#000000" stroke-miterlimit="10" d="M94.036,124.187c0,0,0.54,1.722,2.004,2.642
		c1.465,0.92,1.736,2.113,1.541,2.71"/>
	<path fill="none" stroke="#000000" stroke-miterlimit="10" d="M82.96,124.315c0,0,1.544,3.374,2.676,3.965
		c1.131,0.59,2.265,1.844,2.07,2.442"/>
</g>
<g>
	<path fill="none" stroke="#000000" stroke-miterlimit="10" d="M137.376,106.896c4.974-5.633,19.529,4.414,19.529,4.414
		c-10.175,4.053-3.481,9.236-11.849,15.302s-20.152,1.529-21.75-1.544c-1.598-3.073-7.645-3.166-7.645-3.166
		s2.839-11.569,10.897-13.284L137.376,106.896z"/>
	<path fill="none" stroke="#000000" stroke-miterlimit="10" d="M125.823,110.953c0,0-3.067,4.356-0.464,6.525
		c2.604,2.169,0.803,2.915,0.803,2.915"/>
	<path fill="none" stroke="#000000" stroke-miterlimit="10" d="M129.376,111.104c0,0,0.645,3.711,2.663,4.662
		c2.017,0.951,0.429,2.015,0.537,2.863"/>
	<path fill="none" stroke="#000000" stroke-miterlimit="10" d="M134.467,110.456c0,0,1.972,3.974,4.363,5.826
		c2.39,1.852,1.225,2.172,0.802,2.916"/>
	<path fill="none" stroke="#000000" stroke-miterlimit="10" d="M139.502,108.695c0,0,2.397,4.609,3.723,4.872
		c1.327,0.262,1.383,1.376,1.438,2.49"/>
</g>
<g>
	<path fill="none" stroke="#000000" stroke-miterlimit="10" d="M143.725,90.767c0,0,9.347-1.186,11.061,3.784
		c1.712,4.969,19.378-0.129,22.346-1.329c2.968-1.201,7.914-7.81,6.506-10.813c-1.407-3.003-5.453-13.045-15.216-10.654
		c-9.764,2.392-17.211,2.409-20.013,6.403s0.749,4.381-1.672,7.375C144.316,88.527,143.725,90.767,143.725,90.767z"/>
	<path fill="none" stroke="#000000" stroke-miterlimit="10" d="M153.371,78.996c0.551,0.519,2.409,2.109,2.957,3.903"/>
	<path fill="none" stroke="#000000" stroke-miterlimit="10" d="M155.894,76.657c1.574,0.479,3.062,2.857,3.577,4.008"/>
	<path fill="none" stroke="#000000" stroke-miterlimit="10" d="M165.552,74.886c0,0,1.582,1.969,3.374,2.697
		c1.792,0.728,1.753,2.21,1.753,2.21"/>
	<path fill="none" stroke="#000000" stroke-miterlimit="10" d="M171.657,74.002c0,0,0.79,1.623,2.374,2.316
		c1.585,0.693,2.03,1.832,1.925,2.452"/>
	<path fill="none" stroke="#000000" stroke-miterlimit="10" d="M160.723,75.771c0,0,2.027,3.108,3.234,3.524
		c1.206,0.416,2.514,1.488,2.409,2.109"/>
</g>
<g>
	<path fill="none" stroke="#000000" stroke-miterlimit="10" d="M197.366,48.101c2.763-6.988,19.867-2.488,19.867-2.488
		c-8.191,7.271-0.133,9.87-5.941,18.418c-5.807,8.549-18.432,8.289-20.979,5.941c-2.547-2.347-8.266-0.378-8.266-0.378
		s-1.263-11.845,5.733-16.197L197.366,48.101z"/>
	<path fill="none" stroke="#000000" stroke-miterlimit="10" d="M187.879,55.843c0,0-1.403,5.139,1.782,6.294
		c3.187,1.154,1.746,2.469,1.746,2.469"/>
	<path fill="none" stroke="#000000" stroke-miterlimit="10" d="M191.273,54.776c0,0,1.868,3.271,4.088,3.479
		c2.221,0.208,1.089,1.749,1.478,2.51"/>
	<path fill="none" stroke="#000000" stroke-miterlimit="10" d="M195.84,52.437c0,0,3.205,3.067,6.083,3.996
		c2.877,0.929,1.89,1.626,1.745,2.469"/>
	<path fill="none" stroke="#000000" stroke-miterlimit="10" d="M199.977,49.069c0,0,3.821,3.52,5.158,3.315
		c1.336-0.204,1.768,0.824,2.198,1.853"/>
</g>
<g>
	<path fill="none" stroke="#000000" stroke-miterlimit="10" d="M110.71,42.978c0,0,9.414-0.385,10.697,4.713
		c1.282,5.097,19.319,1.524,22.378,0.582c3.06-0.943,8.55-7.106,7.405-10.219c-1.146-3.112-4.321-13.463-14.252-11.913
		c-9.932,1.55-17.354,0.933-20.486,4.673s0.372,4.428-2.295,7.206S110.71,42.978,110.71,42.978z"/>
	<path fill="none" stroke="#000000" stroke-miterlimit="10" d="M121.325,32.073c0.504,0.564,2.221,2.307,2.613,4.141"/>
	<path fill="none" stroke="#000000" stroke-miterlimit="10" d="M124.038,29.957c1.527,0.611,2.808,3.108,3.222,4.299"/>
	<path fill="none" stroke="#000000" stroke-miterlimit="10" d="M133.812,29.017c0,0,1.408,2.097,3.131,2.975
		c1.723,0.878,1.559,2.352,1.559,2.352"/>
	<path fill="none" stroke="#000000" stroke-miterlimit="10" d="M139.97,28.657c0,0,0.648,1.684,2.168,2.51
		c1.52,0.826,1.867,1.999,1.709,2.607"/>
	<path fill="none" stroke="#000000" stroke-miterlimit="10" d="M128.925,29.487c0,0,1.754,3.27,2.921,3.788
		c1.166,0.517,2.378,1.697,2.22,2.306"/>
</g>
<g>
	<path fill="none" stroke="#000000" stroke-miterlimit="10" d="M183.606,23.616c5.626-4.981,18.843,6.771,18.843,6.771
		c-10.595,2.778-4.585,8.741-13.633,13.737c-9.047,4.995-20.188-0.949-21.397-4.195c-1.21-3.245-7.2-4.078-7.2-4.078
		S164.452,24.716,172.66,24L183.606,23.616z"/>
	<path fill="none" stroke="#000000" stroke-miterlimit="10" d="M171.643,26.228c0,0-3.577,3.948-1.258,6.419
		c2.318,2.471,0.439,2.991,0.439,2.991"/>
	<path fill="none" stroke="#000000" stroke-miterlimit="10" d="M175.151,26.813c0,0,0.186,3.762,2.072,4.953
		c1.886,1.19,0.179,2.052,0.182,2.907"/>
	<path fill="none" stroke="#000000" stroke-miterlimit="10" d="M180.283,26.793c0,0,1.471,4.185,3.617,6.316
		c2.146,2.13,0.95,2.305,0.439,2.992"/>
	<path fill="none" stroke="#000000" stroke-miterlimit="10" d="M185.496,25.662c0,0,1.815,4.868,3.099,5.291
		c1.284,0.423,1.204,1.535,1.122,2.647"/>
</g>
<g>
	<path fill="none" stroke="#000000" stroke-miterlimit="10" d="M278.938,72.398c0,0,6.414,6.136,23.984,2.51
		c17.57-3.626,11.436-10.319,8.925-14.502c-2.51-4.184-17.013-6.415-16.454-10.041c0.557-3.625,0.557,6.136-9.762,8.088
		c-10.319,1.953-8.367,11.993-6.693,14.224"/>
	<path fill="none" stroke="#000000" stroke-miterlimit="10" d="M280.889,65.984c0,0,2.232-5.299,6.973-5.02
		c4.742,0.279,7.531-6.973,7.531-6.973"/>
	<path fill="none" stroke="#000000" stroke-miterlimit="10" d="M287.025,66.542c0,0,1.115-3.904,6.135-5.02
		c5.021-1.115,1.953-6.136,2.232-5.578"/>
	<path fill="none" stroke="#000000" stroke-miterlimit="10" d="M309.895,65.426c0,0-2.23-6.136-8.646-6.694
		c-6.414-0.558-3.904-3.625-3.904-3.625"/>
	<path fill="none" stroke="#000000" stroke-miterlimit="10" d="M295.671,66.542c0,0,3.347-2.231,2.511-4.741"/>
</g>
<g>
	<path fill="none" stroke="#000000" stroke-miterlimit="10" d="M341.323,114.849c0,0,6.916,5.564,24.111,0.446
		c17.194-5.118,10.509-11.261,7.648-15.214c-2.858-3.953-17.499-4.934-17.254-8.593c0.244-3.66,1.081,6.065-9.032,8.895
		c-10.114,2.83-7.309,12.666-5.45,14.745"/>
	<path fill="none" stroke="#000000" stroke-miterlimit="10" d="M342.717,108.291c0,0,1.771-5.47,6.518-5.599
		c4.748-0.128,6.905-7.592,6.905-7.592"/>
	<path fill="none" stroke="#000000" stroke-miterlimit="10" d="M348.879,108.32c0,0,0.776-3.985,5.683-5.527
		c4.907-1.542,1.42-6.28,1.746-5.748"/>
	<path fill="none" stroke="#000000" stroke-miterlimit="10" d="M371.568,105.25c0,0-2.748-5.922-9.188-5.928
		c-6.438-0.006-4.2-3.278-4.2-3.278"/>
	<path fill="none" stroke="#000000" stroke-miterlimit="10" d="M357.493,107.58c0,0,3.143-2.51,2.095-4.939"/>
</g>
<g>
	<path fill="none" stroke="#000000" stroke-miterlimit="10" d="M333.168,65.305c5.188,3.968,11.598,6.41,11.598,13.429
		c0,7.02-12.818,9.767-14.955,10.072c-9.768,4.273-15.871-3.662-15.871-3.662s-6.104-4.884-1.525-8.851
		c4.578-3.968,16.176-7.936,17.091-11.293"/>
	<path fill="none" stroke="#000000" stroke-miterlimit="10" d="M314.855,79.65c0,0,1.221-4.883,7.324-6.409
		c6.104-1.526,8.852-6.715,8.547-5.799"/>
	<path fill="none" stroke="#000000" stroke-miterlimit="10" d="M320.959,79.65c0,0,3.053-3.968,7.02-4.273
		c3.969-0.305,3.053-5.799,3.053-5.799"/>
	<path fill="none" stroke="#000000" stroke-miterlimit="10" d="M333.473,77.514c0.916-0.305,2.137-5.799,0.61-8.241"/>
</g>
<g>
	<path fill="none" stroke="#000000" stroke-miterlimit="10" d="M225.938,129.398c0,0,6.414,6.136,23.984,2.51
		c17.57-3.626,11.436-10.319,8.925-14.502c-2.51-4.184-17.013-6.415-16.454-10.041c0.557-3.625,0.557,6.136-9.762,8.088
		c-10.319,1.953-8.367,11.993-6.693,14.224"/>
	<path fill="none" stroke="#000000" stroke-miterlimit="10" d="M227.889,122.984c0,0,2.232-5.299,6.973-5.02
		c4.742,0.279,7.531-6.973,7.531-6.973"/>
	<path fill="none" stroke="#000000" stroke-miterlimit="10" d="M234.025,123.542c0,0,1.115-3.904,6.135-5.02
		c5.021-1.115,1.953-6.136,2.232-5.578"/>
	<path fill="none" stroke="#000000" stroke-miterlimit="10" d="M256.895,122.426c0,0-2.23-6.136-8.646-6.694
		c-6.414-0.558-3.904-3.625-3.904-3.625"/>
	<path fill="none" stroke="#000000" stroke-miterlimit="10" d="M242.671,123.542c0,0,3.347-2.231,2.511-4.741"/>
</g>
<g>
	<path fill="none" stroke="#000000" stroke-miterlimit="10" d="M275.668,76.305c5.188,3.968,11.598,6.41,11.598,13.429
		c0,7.02-12.818,9.767-14.955,10.072c-9.768,4.273-15.871-3.662-15.871-3.662s-6.104-4.884-1.525-8.851
		c4.578-3.968,16.176-7.936,17.091-11.293"/>
	<path fill="none" stroke="#000000" stroke-miterlimit="10" d="M257.355,90.65c0,0,1.221-4.883,7.324-6.409
		c6.104-1.526,8.852-6.715,8.547-5.799"/>
	<path fill="none" stroke="#000000" stroke-miterlimit="10" d="M263.459,90.65c0,0,3.053-3.968,7.02-4.273
		c3.969-0.305,3.053-5.799,3.053-5.799"/>
	<path fill="none" stroke="#000000" stroke-miterlimit="10" d="M275.973,88.514c0.916-0.305,2.137-5.799,0.61-8.241"/>
</g>
<g>
	<path fill="none" stroke="#000000" stroke-miterlimit="10" d="M239.906,136.236c4.548,4.687,10.529,8.044,9.498,14.987
		c-1.031,6.944-14.114,7.777-16.272,7.765c-10.289,2.792-15.161-5.954-15.161-5.954s-5.32-5.728-0.208-8.979
		s17.167-5.473,18.565-8.659"/>
	<path fill="none" stroke="#000000" stroke-miterlimit="10" d="M219.855,149.65c0,0,1.221-4.883,7.324-6.409
		c6.104-1.526,8.852-6.715,8.547-5.799"/>
	<path fill="none" stroke="#000000" stroke-miterlimit="10" d="M225.959,149.65c0,0,3.053-3.968,7.02-4.273
		c3.969-0.305,3.053-5.799,3.053-5.799"/>
	<path fill="none" stroke="#000000" stroke-miterlimit="10" d="M238.473,147.514c0.916-0.305,2.137-5.799,0.61-8.241"/>
</g>
<g>
	<path fill="none" stroke="#000000" stroke-miterlimit="10" d="M271.783,125.606c0,0,5.948,6.588,23.736,4.256
		c17.789-2.333,12.159-9.456,9.961-13.812c-2.197-4.356-16.498-7.641-15.676-11.216c0.819-3.575,0.106,6.16-10.327,7.353
		c-10.435,1.193-9.221,11.349-7.715,13.696"/>
	<path fill="none" stroke="#000000" stroke-miterlimit="10" d="M274.198,119.351c0,0,2.613-5.122,7.32-4.497
		c4.709,0.625,8.021-6.404,8.021-6.404"/>
	<path fill="none" stroke="#000000" stroke-miterlimit="10" d="M280.277,120.355c0,0,1.397-3.812,6.485-4.558
		c5.09-0.745,2.396-5.977,2.634-5.399"/>
	<path fill="none" stroke="#000000" stroke-miterlimit="10" d="M303.167,120.915c0,0-1.776-6.282-8.134-7.308
		c-6.356-1.025-3.63-3.901-3.63-3.901"/>
	<path fill="none" stroke="#000000" stroke-miterlimit="10" d="M288.899,120.987c0,0,3.501-1.98,2.851-4.545"/>
</g>
<g>
	<path fill="none" stroke="#000000" stroke-miterlimit="10" d="M259.748,158.94c0,0,5.035,7.833,14.268,5.035
		c9.231-2.797,14.268-4.755,13.148-12.029c-1.119-7.273-11.75-8.113-12.31-15.946c0,0-2.518,8.952-7.273,9.512
		S254.713,153.065,259.748,158.94z"/>
	<path fill="none" stroke="#000000" stroke-miterlimit="10" d="M261.986,154.184c0,0,3.077-5.315,7.273-6.994
		c4.196-1.678,3.916-4.196,4.196-4.756"/>
	<path fill="none" stroke="#000000" stroke-miterlimit="10" d="M266.182,155.583c0,0,3.638-6.434,6.155-6.154
		s1.679-6.714,1.958-5.595"/>
	<path fill="none" stroke="#000000" stroke-miterlimit="10" d="M282.967,151.946c0,0-0.838-4.756-5.035-7.833
		c-4.195-3.077-3.637-3.077-2.797-3.077"/>
	<path fill="none" stroke="#000000" stroke-miterlimit="10" d="M275.414,153.345c0,0,2.518-5.036,0.56-7.833"/>
</g>
<g>
	<path fill="none" stroke="#000000" stroke-miterlimit="10" d="M307.748,112.44c0,0,5.035,7.833,14.268,5.035
		c9.231-2.797,14.268-4.755,13.148-12.029c-1.119-7.273-11.75-8.113-12.31-15.946c0,0-2.518,8.952-7.273,9.512
		S302.713,106.565,307.748,112.44z"/>
	<path fill="none" stroke="#000000" stroke-miterlimit="10" d="M309.986,107.684c0,0,3.077-5.315,7.273-6.994
		c4.196-1.678,3.916-4.196,4.196-4.756"/>
	<path fill="none" stroke="#000000" stroke-miterlimit="10" d="M314.182,109.083c0,0,3.638-6.434,6.155-6.154
		s1.679-6.714,1.958-5.595"/>
	<path fill="none" stroke="#000000" stroke-miterlimit="10" d="M330.967,105.446c0,0-0.838-4.756-5.035-7.833
		c-4.195-3.077-3.637-3.077-2.797-3.077"/>
	<path fill="none" stroke="#000000" stroke-miterlimit="10" d="M323.414,106.845c0,0,2.518-5.036,0.56-7.833"/>
</g>
<g>
	<path fill="none" stroke="#000000" stroke-miterlimit="10" d="M300.48,153.021c0,0,6.1,6.448,23.829,3.705
		c17.729-2.745,11.937-9.736,9.638-14.039c-2.298-4.304-16.671-7.256-15.933-10.849c0.737-3.593,0.25,6.156-10.153,7.59
		c-10.403,1.435-8.955,11.56-7.395,13.872"/>
	<path fill="none" stroke="#000000" stroke-miterlimit="10" d="M302.749,146.712c0,0,2.494-5.181,7.215-4.666
		c4.723,0.515,7.87-6.588,7.87-6.588"/>
	<path fill="none" stroke="#000000" stroke-miterlimit="10" d="M308.851,147.575c0,0,1.309-3.844,6.378-4.708
		c5.07-0.863,2.257-6.031,2.508-5.459"/>
	<path fill="none" stroke="#000000" stroke-miterlimit="10" d="M331.747,147.603c0,0-1.922-6.239-8.302-7.117
		c-6.378-0.877-3.719-3.816-3.719-3.816"/>
	<path fill="none" stroke="#000000" stroke-miterlimit="10" d="M317.485,148.007c0,0,3.454-2.061,2.744-4.61"/>
</g>
<g>
	<path fill="none" stroke="#000000" stroke-miterlimit="10" d="M368.081,149.273c0,0,5.035,7.833,14.268,5.035
		c9.231-2.797,14.268-4.755,13.148-12.029c-1.119-7.273-11.75-8.113-12.31-15.946c0,0-2.518,8.952-7.273,9.512
		S363.046,143.398,368.081,149.273z"/>
	<path fill="none" stroke="#000000" stroke-miterlimit="10" d="M370.319,144.518c0,0,3.077-5.315,7.273-6.994
		c4.196-1.678,3.916-4.196,4.196-4.756"/>
	<path fill="none" stroke="#000000" stroke-miterlimit="10" d="M374.515,145.916c0,0,3.638-6.434,6.155-6.154
		s1.679-6.714,1.958-5.595"/>
	<path fill="none" stroke="#000000" stroke-miterlimit="10" d="M391.3,142.279c0,0-0.838-4.756-5.035-7.833
		c-4.195-3.077-3.637-3.077-2.797-3.077"/>
	<path fill="none" stroke="#000000" stroke-miterlimit="10" d="M383.747,143.678c0,0,2.518-5.036,0.56-7.833"/>
</g>
</svg>
